<svg xmlns="http://www.w3.org/2000/svg" version="1.1" xmlns:xlink="http://www.w3.org/1999/xlink" xmlns:svgjs="http://svgjs.com/svgjs" width="1440" height="570" preserveAspectRatio="none" viewBox="0 0 1440 570"><g mask="url(&quot;#SvgjsMask1036&quot;)" fill="none"><path d="M62 570L632 0L1002.5 0L432.5 570z" fill="url(#SvgjsLinearGradient1037)"></path><path d="M338.8 570L908.8 0L1040.8 0L470.8 570z" fill="url(#SvgjsLinearGradient1037)"></path><path d="M665.6 570L1235.6 0L1624.1 0L1054.1 570z" fill="url(#SvgjsLinearGradient1037)"></path><path d="M1421 570L851 0L470 0L1040 570z" fill="url(#SvgjsLinearGradient1038)"></path><path d="M1106.2 570L536.2 0L468.70000000000005 0L1038.7 570z" fill="url(#SvgjsLinearGradient1038)"></path><path d="M784.4 570L214.39999999999998 0L20.899999999999977 0L590.9 570z" fill="url(#SvgjsLinearGradient1038)"></path><path d="M940.8906246243555 570L1440 70.89062462435555L1440 570z" fill="url(#SvgjsLinearGradient1037)"></path><path d="M0 570L499.10937537564445 570L 0 70.89062462435555z" fill="url(#SvgjsLinearGradient1038)"></path></g><defs><mask id="SvgjsMask1036"><rect width="1440" height="570" fill="#ffffff"></rect></mask><linearGradient x1="0%" y1="100%" x2="100%" y2="0%" id="SvgjsLinearGradient1037"><stop stop-color="rgba(204, 205, 207, 0.2)" offset="0"></stop><stop stop-opacity="0" stop-color="rgba(204, 205, 207, 0.2)" offset="0.66"></stop></linearGradient><linearGradient x1="100%" y1="100%" x2="0%" y2="0%" id="SvgjsLinearGradient1038"><stop stop-color="rgba(204, 205, 207, 0.2)" offset="0"></stop><stop stop-opacity="0" stop-color="rgba(204, 205, 207, 0.2)" offset="0.66"></stop></linearGradient></defs></svg>